# xmcd
#
# Track frame offsets:
#  150
#  1988
#  20855
#  47617
#  63623
#  77409
#  97569
#  116550
#  124422
#  146834
#  169650
#  190424
#
# Disc length: 2851 seconds
#
# Revision: 0
# Processed by: cddbd v1.5.1PL0 Copyright (c) Steve Scherf et al.
# Submitted via: Collectorz.com Music Collector 6.9
#
DISCID=9d0b210c
DTITLE=joe jackson - Konzertsaal Udk, Berlin, Germany - 26/07/2005
DYEAR=2005
DGENRE=
TTITLE0=Intro
TTITLE1=Hometown
TTITLE2=Steppin' Out
TTITLE3=Akward Age
TTITLE4=Take It Like A Man
TTITLE5=It's Different For Girls
TTITLE6=On Your Radio
TTITLE7=Intro To Love At First Light
TTITLE8=Love At First Light
TTITLE9=Be My Number Two
TTITLE10=Citizen Sane
TTITLE11=Is She Really Goin' Out With Him?
EXTD=
EXTT0=
EXTT1=
EXTT2=
EXTT3=
EXTT4=
EXTT5=
EXTT6=
EXTT7=
EXTT8=
EXTT9=
EXTT10=
EXTT11=
PLAYORDER=
